<svg width="24" height="30" viewBox="0 0 24 30" fill="none" xmlns="http://www.w3.org/2000/svg">
<path d="M24 24.4951C24 29.4285 17.1517 30 12 30C11.4808 30 10.9691 29.9925 10.4664 29.9775C9.86868 29.9625 9.39773 29.466 9.41585 28.8705C9.43245 28.2765 9.94868 27.8296 10.5283 27.8251C11.0113 27.8386 11.5019 27.8446 12 27.8446C18.5238 27.8446 21.8325 26.7181 21.8325 24.4951C21.8325 22.2512 18.5238 21.1127 12 21.1127C5.47623 21.1127 2.16755 22.2407 2.16755 24.4651C2.16755 25.1926 2.42717 26.2471 4.68075 27.0061C5.2483 27.1966 5.5517 27.8071 5.36 28.3695C5.16679 28.932 4.55396 29.2395 3.98491 29.0445C0.691321 27.9361 0 25.9426 0 24.4651C0 19.631 6.57163 18.9839 11.6825 18.9595L12.5713 18.9598C15.9797 18.9772 24 19.2782 24 24.4951ZM12 0C16.4558 0 20.08 3.60291 20.08 8.0308C20.08 12.4572 16.4558 16.0601 12 16.0601C7.54415 16.0601 3.91849 12.4572 3.91849 8.0308C3.91849 3.60291 7.54415 0 12 0ZM12 2.15545C8.73962 2.15545 6.08755 4.79088 6.08755 8.0308C6.08755 11.2692 8.73962 13.9047 12 13.9047C15.2604 13.9047 17.9125 11.2692 17.9125 8.0308C17.9125 4.79088 15.2604 2.15545 12 2.15545Z" fill="#F9F9F9"/>
</svg>
